<?xml version="1.0" encoding="UTF-8"?>
<svg xmlns="http://www.w3.org/2000/svg" xmlns:xlink="http://www.w3.org/1999/xlink" width="128px" height="47px" viewBox="0 0 129 47" version="1.1">
<g id="surface1">
<path style=" stroke:none;fill-rule:nonzero;fill:rgb(0%,0%,0%);fill-opacity:1;" d="M 6.667969 0.0546875 L 122.332031 0.0546875 C 124.171875 0.0546875 125.835938 0.820312 127.03125 2.019531 C 128.25 3.238281 129 4.925781 129 6.738281 L 129 27.75 C 129 28.894531 128.542969 29.9375 127.800781 30.695312 L 115.757812 45.402344 C 114.964844 46.371094 113.777344 46.933594 112.523438 46.933594 L 6.667969 46.945312 C 4.863281 46.945312 3.179688 46.1875 1.960938 44.96875 C 0.769531 43.773438 0 42.109375 0 40.261719 L 0 6.738281 C 0 4.910156 0.753906 3.242188 1.957031 2.027344 C 3.164062 0.804688 4.832031 0.0546875 6.667969 0.0546875 Z M 6.667969 0.0546875 "/>
<path style=" stroke:none;fill-rule:evenodd;fill:rgb(80%,80%,80%);fill-opacity:1;" d="M 6.667969 4.269531 L 122.332031 4.269531 C 123.6875 4.269531 124.792969 5.425781 124.792969 6.738281 L 124.792969 27.75 L 112.523438 42.730469 L 6.667969 42.730469 C 5.371094 42.730469 4.207031 41.621094 4.207031 40.261719 L 4.207031 6.738281 C 4.207031 5.378906 5.3125 4.269531 6.667969 4.269531 Z M 6.667969 4.269531 "/>
<path style=" stroke:none;fill-rule:evenodd;fill:rgb(0%,0%,0%);fill-opacity:1;" d="M 14.847656 19.882812 L 105.980469 19.882812 C 106.652344 19.882812 107.199219 20.425781 107.199219 21.101562 L 107.199219 32.9375 L 102.417969 32.9375 L 102.417969 26.101562 C 102.417969 25.429688 101.871094 24.882812 101.199219 24.878906 L 19.832031 24.878906 C 19.160156 24.878906 18.609375 25.429688 18.609375 26.105469 L 18.609375 32.9375 L 13.628906 32.9375 L 13.628906 21.105469 C 13.628906 20.429688 14.175781 19.882812 14.847656 19.882812 Z M 22.367188 13.824219 L 24.5625 13.824219 C 24.652344 13.824219 24.71875 13.898438 24.71875 13.980469 L 24.71875 17.640625 C 24.71875 17.722656 24.644531 17.796875 24.5625 17.796875 L 22.367188 17.796875 C 22.28125 17.796875 22.210938 17.730469 22.210938 17.640625 L 22.210938 13.980469 C 22.210938 13.894531 22.277344 13.824219 22.367188 13.824219 Z M 29.722656 13.824219 L 31.921875 13.824219 C 32.007812 13.824219 32.078125 13.898438 32.078125 13.980469 L 32.078125 17.640625 C 32.078125 17.722656 32.003906 17.796875 31.921875 17.796875 L 29.722656 17.796875 C 29.636719 17.796875 29.566406 17.726562 29.566406 17.640625 L 29.566406 13.980469 C 29.566406 13.894531 29.636719 13.824219 29.722656 13.824219 Z M 37.082031 13.824219 L 39.28125 13.824219 C 39.367188 13.824219 39.4375 13.898438 39.4375 13.980469 L 39.4375 17.640625 C 39.4375 17.722656 39.363281 17.796875 39.28125 17.796875 L 37.082031 17.796875 C 37 17.796875 36.925781 17.730469 36.925781 17.640625 L 36.925781 13.980469 C 36.925781 13.894531 36.996094 13.824219 37.082031 13.824219 Z M 44.441406 13.824219 L 46.640625 13.824219 C 46.726562 13.824219 46.796875 13.898438 46.796875 13.980469 L 46.796875 17.640625 C 46.796875 17.722656 46.71875 17.796875 46.640625 17.796875 L 44.441406 17.796875 C 44.355469 17.796875 44.285156 17.726562 44.285156 17.640625 L 44.285156 13.980469 C 44.285156 13.894531 44.355469 13.824219 44.441406 13.824219 Z M 51.800781 13.824219 L 54 13.824219 C 54.085938 13.824219 54.15625 13.898438 54.15625 13.980469 L 54.15625 17.640625 C 54.15625 17.722656 54.078125 17.796875 54 17.796875 L 51.800781 17.796875 C 51.714844 17.796875 51.644531 17.730469 51.644531 17.640625 L 51.644531 13.980469 C 51.644531 13.894531 51.710938 13.824219 51.800781 13.824219 Z M 59.15625 13.824219 L 61.355469 13.824219 C 61.445312 13.824219 61.511719 13.898438 61.511719 13.980469 L 61.511719 17.640625 C 61.511719 17.722656 61.4375 17.796875 61.355469 17.796875 L 59.15625 17.796875 C 59.070312 17.796875 59 17.726562 59 17.640625 L 59 13.980469 C 59 13.894531 59.070312 13.824219 59.15625 13.824219 Z M 66.515625 13.824219 L 68.714844 13.824219 C 68.800781 13.824219 68.871094 13.898438 68.871094 13.980469 L 68.871094 17.640625 C 68.871094 17.722656 68.796875 17.796875 68.714844 17.796875 L 66.515625 17.796875 C 66.433594 17.796875 66.359375 17.730469 66.359375 17.640625 L 66.359375 13.980469 C 66.359375 13.894531 66.425781 13.824219 66.515625 13.824219 Z M 73.871094 13.824219 L 76.070312 13.824219 C 76.15625 13.824219 76.226562 13.898438 76.226562 13.980469 L 76.226562 17.640625 C 76.226562 17.722656 76.15625 17.796875 76.070312 17.796875 L 73.871094 17.796875 C 73.785156 17.796875 73.71875 17.726562 73.714844 17.640625 L 73.714844 13.980469 C 73.714844 13.894531 73.785156 13.824219 73.871094 13.824219 Z M 81.230469 13.824219 L 83.433594 13.824219 C 83.515625 13.824219 83.589844 13.898438 83.589844 13.980469 L 83.589844 17.640625 C 83.589844 17.722656 83.511719 17.796875 83.433594 17.796875 L 81.230469 17.796875 C 81.148438 17.796875 81.074219 17.730469 81.074219 17.640625 L 81.074219 13.980469 C 81.074219 13.894531 81.144531 13.824219 81.230469 13.824219 Z M 88.589844 13.824219 L 90.789062 13.824219 C 90.875 13.824219 90.945312 13.898438 90.945312 13.980469 L 90.945312 17.640625 C 90.945312 17.722656 90.871094 17.796875 90.789062 17.796875 L 88.589844 17.796875 C 88.503906 17.796875 88.433594 17.726562 88.433594 17.640625 L 88.433594 13.980469 C 88.433594 13.894531 88.503906 13.824219 88.589844 13.824219 Z M 88.589844 13.824219 "/>
<path style=" stroke:none;fill-rule:evenodd;fill:rgb(0%,0%,0%);fill-opacity:1;" d="M 26.691406 29.164062 L 28.890625 29.164062 C 28.976562 29.164062 29.046875 29.234375 29.046875 29.320312 L 29.046875 32.976562 C 29.046875 33.058594 28.972656 33.136719 28.890625 33.136719 L 26.691406 33.136719 C 26.605469 33.132812 26.535156 33.0625 26.535156 32.976562 L 26.535156 29.320312 C 26.535156 29.230469 26.605469 29.164062 26.691406 29.164062 Z M 34.050781 29.164062 L 36.25 29.164062 C 36.335938 29.164062 36.40625 29.234375 36.40625 29.320312 L 36.40625 32.976562 C 36.40625 33.058594 36.328125 33.136719 36.25 33.136719 L 34.050781 33.136719 C 33.96875 33.136719 33.894531 33.0625 33.894531 32.976562 L 33.894531 29.320312 C 33.894531 29.230469 33.964844 29.164062 34.050781 29.164062 Z M 41.410156 29.164062 L 43.605469 29.164062 C 43.695312 29.164062 43.761719 29.234375 43.761719 29.320312 L 43.761719 32.976562 C 43.761719 33.058594 43.6875 33.136719 43.605469 33.136719 L 41.410156 33.136719 C 41.324219 33.132812 41.253906 33.0625 41.253906 32.976562 L 41.253906 29.320312 C 41.253906 29.230469 41.320312 29.164062 41.410156 29.164062 Z M 48.765625 29.164062 L 50.964844 29.164062 C 51.050781 29.164062 51.121094 29.234375 51.121094 29.320312 L 51.121094 32.976562 C 51.121094 33.058594 51.046875 33.136719 50.964844 33.136719 L 48.765625 33.136719 C 48.683594 33.136719 48.609375 33.0625 48.609375 32.976562 L 48.609375 29.320312 C 48.609375 29.230469 48.679688 29.164062 48.765625 29.164062 Z M 56.125 29.164062 L 58.320312 29.164062 C 58.410156 29.164062 58.476562 29.234375 58.476562 29.320312 L 58.476562 32.976562 C 58.476562 33.058594 58.40625 33.136719 58.320312 33.136719 L 56.125 33.136719 C 56.039062 33.132812 55.96875 33.0625 55.96875 32.976562 L 55.96875 29.320312 C 55.96875 29.230469 56.035156 29.164062 56.125 29.164062 Z M 63.480469 29.164062 L 65.683594 29.164062 C 65.765625 29.164062 65.835938 29.234375 65.835938 29.320312 L 65.835938 32.976562 C 65.835938 33.058594 65.761719 33.136719 65.683594 33.136719 L 63.480469 33.136719 C 63.402344 33.136719 63.324219 33.0625 63.324219 32.976562 L 63.324219 29.320312 C 63.324219 29.230469 63.394531 29.164062 63.480469 29.164062 Z M 70.839844 29.164062 L 73.039062 29.164062 C 73.125 29.164062 73.195312 29.234375 73.195312 29.320312 L 73.195312 32.976562 C 73.195312 33.058594 73.121094 33.136719 73.039062 33.136719 L 70.839844 33.136719 C 70.757812 33.132812 70.6875 33.0625 70.683594 32.976562 L 70.683594 29.320312 C 70.683594 29.230469 70.753906 29.164062 70.839844 29.164062 Z M 78.199219 29.164062 L 80.398438 29.164062 C 80.484375 29.164062 80.554688 29.234375 80.554688 29.320312 L 80.554688 32.976562 C 80.554688 33.058594 80.480469 33.136719 80.398438 33.136719 L 78.199219 33.136719 C 78.117188 33.136719 78.042969 33.0625 78.042969 32.976562 L 78.042969 29.320312 C 78.042969 29.230469 78.113281 29.164062 78.199219 29.164062 Z M 85.558594 29.164062 L 87.753906 29.164062 C 87.84375 29.164062 87.910156 29.234375 87.910156 29.320312 L 87.910156 32.976562 C 87.910156 33.058594 87.839844 33.136719 87.753906 33.136719 L 85.558594 33.136719 C 85.472656 33.132812 85.402344 33.0625 85.402344 32.976562 L 85.402344 29.320312 C 85.402344 29.230469 85.46875 29.164062 85.558594 29.164062 Z M 92.914062 29.164062 L 95.113281 29.164062 C 95.199219 29.164062 95.269531 29.234375 95.269531 29.320312 L 95.269531 32.976562 C 95.269531 33.058594 95.195312 33.136719 95.113281 33.136719 L 92.914062 33.136719 C 92.835938 33.136719 92.757812 33.0625 92.757812 32.976562 L 92.757812 29.320312 C 92.757812 29.230469 92.828125 29.164062 92.914062 29.164062 Z M 92.914062 29.164062 "/>
</g>
</svg>
